Coordinates
version=1
nRows=9
nColumns=63
inDegrees=yes

Units are S.I. units (second, meters, Newtons, ...)
If the header above contains a line with 'inDegrees', this indicates whether rotational values are in degrees (yes) or radians (no).

endheader
time	pelvis_tilt	pelvis_list	pelvis_rotation	pelvis_tx	pelvis_ty	pelvis_tz	hip_flexion_r	hip_adduction_r	hip_rotation_r	knee_angle_r	knee_angle_r_beta	ankle_angle_r	subtalar_angle_r	mtp_angle_r	hip_flexion_l	hip_adduction_l	hip_rotation_l	knee_angle_l	knee_angle_l_beta	ankle_angle_l	subtalar_angle_l	mtp_angle_l	L5_S1_Flex_Ext	L5_S1_Lat_Bending	L5_S1_axial_rotation	L4_L5_Flex_Ext	L4_L5_Lat_Bending	L4_L5_axial_rotation	L3_L4_Flex_Ext	L3_L4_Lat_Bending	L3_L4_axial_rotation	L2_L3_Flex_Ext	L2_L3_Lat_Bending	L2_L3_axial_rotation	L1_L2_Flex_Ext	L1_L2_Lat_Bending	L1_L2_axial_rotation	L1_T12_Flex_Ext	L1_T12_Lat_Bending	L1_T12_axial_rotation	Abs_r3	Abs_r2	Abs_r1	Abs_t1	Abs_t2	neck_flexion	neck_bending	neck_rotation	arm_flex_r	arm_add_r	arm_rot_r	elbow_flex_r	pro_sup_r	wrist_flex_r	wrist_dev_r	arm_flex_l	arm_add_l	arm_rot_l	elbow_flex_l	pro_sup_l	wrist_flex_l	wrist_dev_l
3.500000	5.907201	-4.842704	73.816127	0.266896	1.104921	0.285365	1.308192	3.599763	-1.442337	12.336017	0.215304	28.775207	13.212216	0.000000	-5.429910	-3.963317	-1.536497	1.941918	0.033893	32.159724	-10.403926	0.000000	-0.255852	1.191314	1.981317	-0.475142	1.584448	2.105149	-0.420339	2.896562	2.105149	-0.292413	2.896562	1.733652	-0.237584	2.429328	1.609820	-0.146194	1.845346	1.485988	-1.827523	13.476386	11.019491	0.000000	0.000000	6.752776	-12.908877	8.759495	-1.177655	-22.532730	52.459733	23.582336	48.324633	-2.640735	-0.630933	2.168681	-15.033447	22.163223	119.641083	44.812893	17.065278	25.543380
3.516667	6.045809	-4.957332	73.672846	0.267023	1.105153	0.286561	1.605238	3.750917	-1.384030	12.606545	0.220026	28.703731	13.279892	0.000000	-5.289180	-4.102880	-1.325474	1.960807	0.034223	32.024762	-10.976685	0.000000	-0.261129	1.194394	2.083411	-0.484942	1.588544	2.213625	-0.429008	2.904049	2.213625	-0.298444	2.904049	1.822985	-0.242484	2.435608	1.692772	-0.149209	1.850116	1.562559	-1.865217	13.511221	11.587310	0.000000	0.000000	6.396483	-12.995655	8.335480	-1.364987	-22.605796	51.886644	23.849819	49.141292	-2.781877	-0.617970	4.450356	-14.053653	23.783183	122.567862	43.133983	15.283938	23.775667
3.533333	6.185124	-5.040363	73.721573	0.266993	1.105372	0.287555	1.864225	3.909900	-1.376266	12.880501	0.224807	28.622235	13.203480	0.000000	-5.142071	-4.261442	-1.113565	2.053509	0.035840	31.941515	-11.322639	0.000000	-0.262724	1.193754	2.152516	-0.487904	1.587693	2.287048	-0.431629	2.902495	2.287048	-0.300267	2.902495	1.883451	-0.243965	2.434304	1.748919	-0.150120	1.849126	1.614387	-1.876609	13.503989	11.971647	0.000000	0.000000	5.988637	-13.044396	7.780990	-1.591211	-22.707250	51.206259	24.251468	49.827581	-3.010394	-0.642774	6.926028	-13.129054	25.700698	125.355843	42.992524	13.041797	21.295709
3.550000	6.350486	-5.088600	74.009855	0.266748	1.105559	0.288268	2.063046	4.096985	-1.510126	13.137087	0.229285	28.519855	13.029459	0.000000	-4.976080	-4.484358	-1.122371	2.252068	0.039306	31.994627	-11.071206	0.000000	-0.260304	1.193453	2.181104	-0.483411	1.587292	2.317423	-0.427654	2.901760	2.317423	-0.297502	2.901760	1.908466	-0.241719	2.433688	1.772147	-0.148738	1.848658	1.635828	-1.859327	13.500574	12.130648	0.000000	0.000000	5.546109	-13.087414	7.131299	-1.945600	-22.809086	50.104916	24.819785	50.598144	-3.266146	-0.700030	9.514895	-12.218038	27.691387	128.076822	44.457299	10.820420	18.686120
3.566667	6.518693	-5.113110	74.449501	0.266413	1.105719	0.288731	2.232138	4.284223	-1.747022	13.406226	0.233983	28.406264	12.803245	0.000000	-4.805759	-4.737140	-1.372226	2.525451	0.044077	32.151263	-10.302253	0.000000	-0.253859	1.191101	2.179107	-0.471441	1.584165	2.315301	-0.417064	2.896044	2.315301	-0.290135	2.896044	1.906718	-0.235733	2.428894	1.770524	-0.145055	1.845016	1.634330	-1.813286	13.473978	12.119538	0.000000	0.000000	5.082110	-13.099559	6.410669	-2.347284	-22.909176	48.787950	25.478093	51.463507	-3.515831	-0.744461	12.142370	-11.350318	29.699557	130.741888	47.499048	8.696419	16.057177
3.583333	6.708137	-5.117030	75.043096	0.265956	1.105861	0.288946	2.358309	4.491039	-2.097055	13.658517	0.238386	28.261820	12.529969	0.000000	-4.625029	-5.036903	-1.798586	2.879999	0.050265	32.403665	-9.094000	0.000000	-0.244008	1.190270	2.146143	-0.453147	1.583059	2.280277	-0.400881	2.894022	2.280277	-0.278877	2.894022	1.877875	-0.226586	2.427198	1.743741	-0.139426	1.843728	1.609607	-1.742924	13.464570	11.936203	0.000000	0.000000	4.600635	-13.112477	5.652063	-2.799482	-23.017600	47.302528	26.215946	52.383020	-3.767639	-0.858992	14.728285	-10.494851	31.551525	133.353410	52.053191	7.063202	13.625577
3.600000	6.925954	-5.099263	75.717285	0.265467	1.106002	0.288922	2.432585	4.724820	-2.508101	13.882794	0.242300	28.087561	12.238319	0.000000	-4.459044	-5.379676	-2.382296	3.292280	0.057461	32.732170	-7.568981	0.000000	-0.232704	1.192624	2.097008	-0.432155	1.586189	2.228071	-0.382310	2.899745	2.228071	-0.265958	2.899745	1.834882	-0.216089	2.431998	1.703819	-0.132967	1.847374	1.572756	-1.662183	13.491197	11.662928	0.000000	0.000000	4.113749	-13.124234	4.884829	-3.291555	-23.140834	45.723907	27.009682	53.354740	-4.020704	-1.072473	17.232720	-9.658951	33.188713	135.850958	57.670448	6.046825	11.483796
3.616667	7.156011	-5.062862	76.470157	0.264951	1.106134	0.288703	2.462264	4.971864	-2.994288	14.076455	0.245680	27.896247	11.929538	0.000000	-4.294924	-5.746275	-2.973200	3.757053	0.065573	33.098068	-5.928288	0.000000	-0.220975	1.196210	2.025383	-0.410373	1.590959	2.151969	-0.363040	2.908465	2.151969	-0.252552	2.908465	1.772210	-0.205197	2.439312	1.645623	-0.126265	1.852929	1.519037	-1.578403	13.531768	11.264570	0.000000	0.000000	3.666074	-13.174722	4.102919	-3.736684	-23.288055	44.279872	27.801073	54.428898	-4.284476	-1.358354	19.616123	-8.883121	34.566991	138.187256	63.666473	5.569637	9.863957
3.633333	7.400071	-5.007566	77.196835	0.264555	1.106280	0.288245	2.433498	5.236044	-3.451265	14.224768	0.248269	27.686868	11.619918	0.000000	-4.176526	-6.123047	-3.588336	4.225100	0.073742	33.467147	-4.292794	0.000000	-0.209537	1.202243	1.953652	-0.389131	1.598984	2.075755	-0.344248	2.923135	2.075755	-0.239480	2.923135	1.709445	-0.194576	2.451615	1.587342	-0.119729	1.862275	1.465239	-1.496702	13.600019	10.865624	0.000000	0.000000	3.245204	-13.236949	3.356189	-4.209462	-23.428113	42.777785	28.603020	55.484029	-4.530780	-1.714962	21.834999	-8.175117	35.653499	140.314870	69.819736	5.513029	8.689098
